<?xml version="1.0" ?><svg viewBox="0 0 24 24" xmlns="http://www.w3.org/2000/svg"><defs><style>.cls-1{fill:none;}.cls-2{fill:#fff;}.cls-3{fill:#4285f4;}.cls-3,.cls-4,.cls-5,.cls-6{fill-rule:evenodd;}.cls-4{fill:#ea4335;}.cls-5{fill:#34a853;}.cls-6{fill:#fbbc04;}</style></defs><title/><g data-name="Layer 2" id="Layer_2"><g data-name="Layer 3" id="Layer_3"><rect class="cls-1" height="24" width="24"/><path class="cls-2" d="M1,12C1,4,4,1,12,1S23,4,23,12,20,23,12,23,1,20,1,12"/><path class="cls-3" d="M16.9,19H12V17.6h4.9a.71.71,0,0,0,.7-.7V7.1a.7.7,0,0,0-.7-.69H12V5h4.9A2.11,2.11,0,0,1,19,7.1v9.8A2.11,2.11,0,0,1,16.9,19"/><path class="cls-4" d="M12,19H7.1A2.11,2.11,0,0,1,5,16.9V7.1A2.11,2.11,0,0,1,7.1,5H12V6.4H7.1a.69.69,0,0,0-.69.7v9.8a.7.7,0,0,0,.7.7H12Z"/><path class="cls-5" d="M13.4,12.7l-1.58,1.93L10.6,13.4,7.8,16.2h8.4Z"/><path class="cls-6" d="M10.6,9.2A1.4,1.4,0,1,1,9.2,7.8a1.4,1.4,0,0,1,1.4,1.4"/></g></g></svg>