<svg xmlns="http://www.w3.org/2000/svg" viewBox="0 0 80 80" id="Gallery">
  <path d="M17.555 75h38.843c4.76 0 8.85-2.91 10.59-7.044 4.209-1.78 7.01-5.957 7.01-10.554V16.483C73.997 10.151 68.845 5 62.513 5H23.67c-4.596 0-8.774 2.8-10.555 7.01-4.133 1.74-7.043 5.83-7.043 10.589v40.918C6.072 69.849 11.224 75 17.555 75zM23.67 7h38.844c5.23 0 9.483 4.254 9.483 9.483v40.92c0 3.21-1.655 6.178-4.27 7.905.093-.586.155-1.18.155-1.791V22.599c0-6.332-5.152-11.484-11.484-11.484H17.555c-.61 0-1.206.062-1.79.154C17.491 8.655 20.457 7 23.67 7zm-6.115 6.115h38.843c5.23 0 9.484 4.254 9.484 9.484v38.38H8.072v-38.38c0-5.23 4.254-9.484 9.483-9.484zM8.072 62.98h57.81v.538c0 5.23-4.254 9.483-9.484 9.483H17.555c-5.229 0-9.483-4.254-9.483-9.483v-.538z" fill="#ffffff" class="color000000 svgShape"></path>
  <path d="M45.338 17.308 33.562 32.172l-7.143-3.297L10.203 52H61.07L45.338 17.308zM27.097 31.39l7.054 3.255L44.87 21.118 57.966 50H14.049l13.048-18.61zm-7.324-3.966a5.041 5.041 0 0 0 5.037-5.036c0-2.787-2.26-5.054-5.037-5.054a5.059 5.059 0 0 0-5.052 5.054c0 2.777 2.266 5.036 5.052 5.036zm0-8.09c1.674 0 3.037 1.37 3.037 3.054a3.04 3.04 0 0 1-3.037 3.036 3.048 3.048 0 0 1-3.052-3.036 3.057 3.057 0 0 1 3.052-3.054z" fill="#ffffff" class="color000000 svgShape"></path>
</svg>
